<svg 
  id="edvJesEp0Xl1" 
  viewBox="0 0 16 16" 
  shape-rendering="geometricPrecision" 
  text-rendering="geometricPrecision"
>
  <path d="M30,80v-80h50h50v80v80h-50-50v-80Zm90,45c0-22-4-25-40-25s-40,3-40,25c0,23,4,25,40,25s40-2,40-25Zm0-75v-40h-40-40v40v40h40h40v-40Z"/>
  <path d="M51,54c0-11,3-14,6-6c3,7,2,16-1,19-3,4-6-2-5-13Z"/>
  <rect 
    width="8.104803" 
    height="5.729257" 
    rx="0.2" 
    ry="0.2" 
    transform="matrix(1.431023 0 0 1 2.20092 0.4)" 
    fill="#ff6b00" 
    stroke="#343434" 
    stroke-width="0"
  />
  <rect 
    width="8.104804" 
    height="8.803493" 
    rx="0.2" 
    ry="0.2" 
    transform="matrix(1.431023 0 0 1.015873 2.20092 6.551499)" 
    fill="#ff6b00" 
    stroke="#343434" 
    stroke-width="0"
  />
  <rect 
    width="1.076411" 
    height="2.663377" 
    rx="0" 
    ry="0" 
    transform="translate(3.464768 7.274137)" 
    fill="#fff" 
    stroke-width="0"
  />
  <rect 
    width="1.076411" 
    height="2.215062" 
    rx="0" 
    ry="0" 
    transform="translate(3.464768 3.367687)" 
    fill="#fff" 
    stroke-width="0"
  />
</svg>
